<?xml version="1.0" standalone="no"?>
<!DOCTYPE svg PUBLIC "-//W3C//DTD SVG 20010904//EN"
 "http://www.w3.org/TR/2001/REC-SVG-20010904/DTD/svg10.dtd">
<svg version="1.0" xmlns="http://www.w3.org/2000/svg"
 width="2000.000000pt" height="2000.000000pt" viewBox="0 0 2000.000000 2000.000000"
 preserveAspectRatio="xMidYMid meet">

<g transform="translate(0.000000,2000.000000) scale(0.100000,-0.100000)"
fill="#000000" stroke="none">
<path d="M9780 19524 c-286 -35 -423 -60 -575 -105 -64 -19 -327 -120 -402
-154 -17 -8 -35 -15 -40 -15 -4 0 -71 -36 -147 -80 -77 -44 -141 -80 -143 -80
-2 0 -63 -35 -136 -77 -72 -42 -181 -105 -242 -140 -60 -34 -126 -72 -145 -84
-49 -29 -233 -135 -310 -179 -215 -123 -290 -167 -335 -195 -27 -18 -88 -52
-135 -77 -47 -25 -134 -76 -193 -112 -60 -37 -136 -80 -170 -97 -33 -17 -95
-52 -136 -78 -42 -26 -112 -67 -156 -91 -44 -24 -123 -69 -175 -100 -52 -31
-122 -72 -155 -90 -54 -30 -190 -109 -430 -250 -44 -26 -177 -102 -295 -170
-118 -68 -262 -151 -320 -185 -58 -34 -141 -81 -185 -105 -44 -24 -118 -67
-165 -95 -84 -51 -121 -73 -250 -143 -36 -20 -91 -53 -122 -74 -31 -21 -59
-38 -61 -38 -6 0 -214 -117 -337 -189 -181 -107 -431 -251 -435 -251 -3 0 -28
-15 -57 -33 -29 -19 -75 -47 -103 -62 -27 -16 -84 -47 -125 -70 -41 -24 -111
-65 -155 -92 -44 -28 -108 -64 -141 -81 -33 -17 -80 -46 -105 -64 -24 -19 -73
-54 -109 -78 -206 -138 -480 -403 -644 -622 -101 -136 -116 -158 -199 -298
-70 -119 -105 -187 -177 -345 -47 -103 -135 -357 -156 -455 -25 -111 -52 -251
-66 -345 -19 -131 -20 -7050 0 -7170 37 -227 50 -289 94 -445 33 -119 119
-341 182 -475 45 -94 189 -343 235 -406 127 -175 199 -258 350 -409 263 -263
418 -375 851 -618 25 -14 52 -31 60 -37 8 -7 40 -25 70 -41 30 -15 118 -66
195 -112 77 -46 183 -107 235 -135 52 -28 140 -79 196 -113 55 -34 127 -76
160 -93 32 -18 91 -51 130 -74 39 -23 91 -54 115 -68 54 -32 242 -139 329
-189 36 -20 88 -49 115 -65 28 -16 78 -46 113 -67 34 -21 65 -38 68 -38 7 0
148 -83 214 -126 19 -12 81 -47 137 -78 56 -30 121 -67 145 -83 24 -15 108
-64 188 -109 80 -44 190 -108 245 -141 55 -32 138 -81 185 -108 47 -27 134
-77 194 -112 60 -35 110 -63 112 -63 3 0 21 -11 42 -24 37 -23 476 -276 562
-324 25 -14 68 -39 95 -57 28 -18 102 -61 165 -95 63 -35 133 -75 155 -90 22
-15 81 -49 130 -75 50 -27 153 -86 229 -132 76 -46 143 -83 147 -83 5 0 66
-35 136 -78 71 -44 180 -107 243 -142 63 -34 122 -69 130 -76 30 -25 386 -201
450 -221 36 -12 90 -31 120 -43 157 -61 347 -109 540 -134 290 -39 463 -44
720 -21 285 26 411 49 605 111 102 33 355 144 417 182 14 10 60 37 102 62 126
74 141 85 144 106 3 24 -13 62 -74 169 -25 44 -61 114 -80 155 -20 41 -47 98
-61 125 -15 28 -75 145 -133 260 -146 287 -185 356 -204 367 -11 6 -46 -7
-123 -48 -205 -108 -331 -157 -478 -184 -256 -47 -462 -49 -715 -5 -151 26
-220 47 -348 106 -99 46 -242 118 -257 129 -15 11 -410 241 -490 285 -38 22
-92 53 -120 71 -27 17 -113 66 -190 109 -77 43 -162 93 -190 110 -27 18 -97
58 -155 90 -58 32 -152 86 -210 120 -58 34 -159 92 -225 130 -66 37 -131 76
-145 85 -14 10 -61 37 -105 60 -44 24 -111 62 -150 85 -92 55 -223 130 -430
250 -93 54 -198 115 -232 136 -34 22 -64 39 -66 39 -6 0 -199 110 -212 120
-11 9 -50 31 -190 108 -55 30 -122 69 -150 87 -27 18 -108 65 -180 105 -71 40
-134 76 -140 80 -15 11 -257 150 -261 150 -3 0 -64 35 -137 79 -72 43 -208
122 -302 176 -93 54 -183 106 -200 116 -16 9 -75 43 -130 74 -245 140 -507
292 -585 340 -47 29 -128 74 -180 102 -121 64 -279 176 -385 272 -88 81 -210
223 -269 315 -67 103 -143 242 -156 283 -5 15 -18 53 -30 83 -24 61 -38 112
-78 275 l-27 110 0 3405 0 3405 27 110 c43 176 54 215 87 303 39 104 47 120
139 276 156 261 397 490 672 638 36 19 110 62 165 95 55 33 154 90 220 128 66
37 179 102 250 145 72 42 166 96 210 120 44 24 118 67 165 95 47 28 132 78
190 110 58 32 128 73 155 90 28 18 77 47 110 65 33 17 69 37 80 43 10 7 36 22
56 34 19 11 125 73 235 136 109 63 240 138 289 167 186 109 562 324 605 348
25 14 104 60 175 102 72 42 177 103 235 135 58 32 119 68 135 80 17 12 86 52
155 89 69 37 161 90 205 117 44 28 111 66 149 86 38 19 81 43 95 53 14 9 71
43 126 75 55 32 136 79 180 105 44 26 112 65 150 86 39 21 120 68 180 105 61
36 135 79 165 94 30 15 89 49 130 75 41 26 126 76 189 110 63 34 133 74 155
89 23 15 82 50 131 76 50 27 118 66 151 87 133 83 360 173 534 212 167 37 385
45 590 21 142 -16 169 -22 335 -78 163 -54 381 -165 610 -310 39 -24 115 -68
170 -97 55 -29 142 -80 193 -112 51 -33 112 -68 135 -79 47 -21 70 -34 177
-100 41 -25 121 -73 178 -105 57 -32 147 -84 200 -115 53 -31 147 -84 207
-119 175 -100 245 -140 320 -185 39 -23 106 -61 150 -85 44 -24 105 -59 135
-78 86 -55 239 -142 248 -142 5 0 38 -19 73 -41 35 -23 127 -78 204 -121 77
-44 181 -104 230 -132 233 -137 345 -202 405 -236 246 -140 436 -250 500 -290
41 -25 109 -63 150 -85 41 -21 100 -55 131 -75 31 -21 117 -70 190 -110 74
-41 163 -92 199 -115 105 -69 250 -135 310 -144 30 -4 64 -12 75 -18 114 -64
162 -97 230 -162 58 -55 119 -99 218 -156 250 -145 271 -158 367 -229 304
-225 526 -545 632 -911 45 -155 59 -250 69 -470 15 -327 6 -6492 -9 -6602 -39
-269 -128 -515 -261 -723 -183 -284 -388 -470 -716 -645 -49 -26 -101 -55
-115 -65 -35 -24 -197 -120 -204 -120 -3 0 -52 -28 -108 -61 -57 -34 -116 -70
-133 -79 -205 -116 -251 -143 -260 -150 -11 -8 -606 -350 -665 -382 -19 -11
-87 -50 -150 -88 -63 -37 -158 -92 -210 -121 -52 -29 -144 -83 -205 -119 -60
-37 -148 -87 -195 -112 -47 -25 -99 -54 -116 -64 -230 -139 -539 -317 -566
-327 -42 -15 -48 -6 -230 353 -63 124 -188 369 -278 545 -89 176 -216 424
-280 550 -65 127 -184 361 -266 520 -81 160 -199 391 -261 515 -125 249 -549
1079 -615 1205 -23 44 -54 108 -69 141 -14 34 -42 88 -61 120 -20 33 -47 91
-62 129 -14 39 -48 111 -74 161 -51 100 -238 470 -699 1384 -165 327 -423 838
-573 1135 -150 297 -402 797 -560 1110 -158 314 -294 584 -303 600 -10 17 -48
93 -86 170 -37 77 -90 183 -117 235 -27 52 -59 115 -70 140 -12 25 -99 198
-194 385 -249 491 -320 633 -320 642 -1 13 -34 49 -57 62 -24 12 -2414 15
-2445 3 -30 -13 -164 -136 -201 -186 l-37 -49 0 -3493 c0 -3284 1 -3494 17
-3510 15 -15 32 -16 138 -11 66 3 146 13 178 22 32 8 70 15 84 15 59 0 349 98
481 162 225 110 401 236 571 408 252 255 421 539 515 861 86 298 79 182 86
1459 3 624 7 1136 8 1138 1 2 12 2 23 0 22 -3 39 -35 252 -448 41 -80 129
-251 197 -380 67 -129 178 -343 245 -475 68 -132 140 -269 160 -305 20 -36 65
-123 100 -195 34 -71 83 -164 107 -205 24 -41 64 -118 88 -170 25 -52 65 -131
89 -175 24 -44 90 -170 146 -280 56 -110 118 -229 137 -265 32 -59 220 -423
282 -545 14 -27 48 -99 76 -159 28 -60 67 -133 86 -162 18 -30 34 -58 34 -62
0 -7 39 -84 245 -487 71 -137 172 -335 225 -440 53 -104 108 -208 121 -230 14
-22 72 -132 129 -245 170 -337 306 -606 390 -770 44 -85 89 -175 100 -200 12
-25 37 -74 56 -110 20 -36 67 -128 106 -205 39 -77 92 -176 117 -220 25 -44
84 -159 133 -255 48 -96 103 -204 122 -240 18 -36 40 -78 48 -95 13 -26 103
-202 127 -245 33 -62 104 -204 146 -295 20 -44 47 -100 60 -125 13 -25 81
-160 152 -300 71 -140 141 -274 156 -297 15 -24 27 -48 27 -54 0 -22 152 -307
176 -330 l25 -24 57 30 c80 40 190 103 237 135 22 15 79 48 128 73 48 26 138
78 200 115 61 38 175 103 252 146 154 85 162 89 220 127 22 14 102 60 177 102
75 42 194 111 265 153 70 42 135 79 143 83 8 3 71 39 140 80 158 93 218 128
304 177 37 21 76 44 85 49 9 6 79 46 156 89 120 68 245 141 385 225 19 11 60
33 90 49 30 16 107 60 170 98 63 39 156 92 205 119 50 27 104 58 120 69 17 12
94 57 172 101 139 78 193 110 571 328 232 135 255 148 367 210 50 28 104 61
121 74 17 12 33 23 36 23 3 0 49 25 103 55 53 30 99 55 102 55 3 0 26 15 52
33 25 18 88 57 139 86 266 149 545 420 766 744 25 38 46 70 46 73 0 3 17 31
39 62 96 143 254 490 306 672 14 52 30 109 35 125 4 17 16 68 25 115 9 47 25
128 35 180 46 231 45 139 45 3680 0 3556 2 3423 -46 3665 -71 364 -96 455
-186 665 -135 317 -268 537 -480 796 -137 167 -362 376 -530 493 -48 34 -110
78 -136 97 -27 19 -92 59 -145 88 -53 29 -129 74 -169 99 -40 26 -107 65 -150
87 -43 22 -90 48 -104 58 -15 9 -53 32 -85 51 -33 19 -122 71 -200 117 -77 46
-149 87 -160 90 -10 4 -68 37 -129 74 -60 37 -162 95 -225 130 -63 35 -133 76
-155 90 -22 15 -96 58 -165 95 -69 38 -143 80 -165 95 -22 14 -87 53 -145 85
-140 78 -267 152 -311 181 -19 13 -38 24 -41 24 -3 0 -57 30 -119 66 -140 81
-518 300 -734 424 -88 51 -203 118 -255 150 -52 31 -124 72 -159 90 -36 17
-101 55 -145 83 -45 28 -110 66 -146 86 -69 37 -193 108 -275 158 -27 17 -99
58 -160 93 -60 35 -181 104 -267 154 -87 50 -177 102 -200 115 -24 13 -95 54
-158 91 -63 36 -177 102 -253 146 -76 43 -163 94 -195 113 -55 32 -116 67
-327 184 -104 58 -206 103 -407 181 -358 139 -918 207 -1308 160z"/>
<path d="M12201 13783 c-11 -10 -58 -92 -104 -183 -46 -91 -153 -300 -237
-465 -84 -165 -180 -354 -212 -420 -32 -66 -64 -129 -70 -140 -14 -24 -228
-444 -349 -685 -48 -96 -95 -186 -103 -200 -9 -14 -47 -88 -84 -165 -38 -77
-123 -246 -189 -375 -188 -369 -300 -593 -308 -617 -5 -17 69 -172 306 -640
172 -340 409 -810 527 -1045 186 -370 218 -428 237 -428 13 0 27 6 33 13 5 6
61 111 122 232 119 232 194 378 277 535 51 96 174 335 331 640 46 91 88 170
93 176 4 5 49 91 98 190 112 221 189 364 207 384 38 40 39 30 45 -1088 6
-1118 6 -1119 51 -1337 72 -353 274 -730 532 -993 279 -286 582 -460 1001
-577 148 -41 431 -69 473 -46 l22 12 0 3510 c0 2170 -4 3517 -9 3528 -19 35
-165 174 -197 187 -28 12 -238 14 -1253 14 -1146 0 -1220 -1 -1240 -17z"/>
</g>
</svg>
